<?xml version="1.0" encoding="UTF-8"?>
<svg id="_レイヤー_2" data-name="レイヤー 2" xmlns="http://www.w3.org/2000/svg" viewBox="0 0 752.52 152">
  <defs>
    <style>
      .cls-1 {
        fill: #ec6315;
      }

      .cls-1, .cls-2 {
        stroke-width: 0px;
      }

      .cls-2 {
        fill: #fdd000;
      }
    </style>
  </defs>
  <g id="_レイヤー_1-2" data-name="レイヤー 1">
    <g>
      <g>
        <path class="cls-1" d="m94.14,144.18c-7.06,5.04-17.43,7.81-29.22,7.81-29.89,0-46.35-15.72-46.35-44.26v-47.7H1.4c-.77,0-1.4-.62-1.4-1.39v-26.65c0-.77.63-1.39,1.4-1.39h17.17V1.39c0-.77.63-1.39,1.4-1.39h34.89c.77,0,1.4.62,1.4,1.39v29.22h28.57c.77,0,1.4.62,1.4,1.39v26.65c0,.77-.63,1.39-1.4,1.39h-28.57v47.25c0,9.28,4.82,14.38,13.59,14.38,4.93,0,9.76-1.52,13.24-4.16.35-.27.81-.35,1.23-.23.42.12.77.43.92.84l9.39,24.43c.23.59.02,1.26-.49,1.62Z"/>
        <path class="cls-1" d="m181.47,41.2c-13.25,0-24.62,3.84-33.09,11.15V1.25c0-.69-.56-1.25-1.26-1.25h-31.33c-.69,0-1.26.56-1.26,1.25v147.98c0,.69.56,1.25,1.26,1.25h31.33c.69,0,1.26-.56,1.26-1.25v-50.94c0-17.59,8.99-27.67,24.65-27.67,13.69,0,20.63,8.1,20.63,24.08v54.53c0,.69.56,1.25,1.26,1.25h31.33c.69,0,1.26-.56,1.26-1.25v-59.32c0-30.5-17.21-48.72-46.04-48.72Z"/>
        <path class="cls-1" d="m350.4,42.74c-.66,0-1.19.54-1.19,1.2v105.33c0,.66.54,1.2,1.19,1.2h29.73c.66,0,1.19-.54,1.19-1.2v-53.76c0-16.48,7.76-25.93,21.3-25.93,12.11,0,18.25,7.82,18.25,23.24v56.45c0,.66.54,1.2,1.19,1.2h29.73c.66,0,1.19-.54,1.19-1.2v-53.76c0-16.48,7.83-25.93,21.49-25.93,11.94,0,18.25,8.03,18.25,23.24v56.45c0,.66.54,1.2,1.19,1.2h29.74c.66,0,1.19-.54,1.19-1.2v-61.07c0-29.87-15.72-47.01-43.13-47.01-14.93,0-28.27,5.86-36.89,16.13-7.3-10.42-19.24-16.13-33.82-16.13-12.46,0-23.35,4.12-31.02,11.66l-29.59-10.11Z"/>
        <path class="cls-1" d="m590.37,41.2c-17.07,0-33.9,4.69-45.02,12.55-.48.34-.64.98-.37,1.51l10.7,20.68c.16.32.46.54.81.62.35.07.71-.01.99-.23,7.21-5.69,18.27-9.23,28.87-9.23,14.45,0,22.01,5.97,22.47,17.74h-22.47c-29.23,0-45.33,13.07-45.33,33.53,0,19.21,15.91,33.63,39.6,33.63,13.61,0,23.94-4,30.14-11.63v8.93c0,.66.54,1.19,1.19,1.19h27.89c.66,0,1.19-.53,1.19-1.19v-61.56c0-30.44-17.52-46.54-50.68-46.54Zm18.48,75.63c-3.12,8.19-10.68,12.88-20.78,12.88s-15.62-5.79-15.62-12.66c0-7.25,5.61-12.56,17.15-12.56h19.25v12.35Z"/>
        <path class="cls-1" d="m711.02,84.66c-11.05-1.76-20.59-3.29-20.59-9.39,0-5.36,6.69-8.55,17.91-8.55,10.63,0,20.13,2.51,29.03,7.66.29.17.64.21.95.1.32-.1.58-.34.72-.65l9.93-21.71c.26-.57.05-1.25-.48-1.57-9.44-5.69-25.2-9.37-40.16-9.37-29.62,0-48.77,13.84-48.77,35.26,0,26.7,24.35,30.35,42.13,33.01,10.71,1.6,19.96,2.99,19.96,8.65,0,2.07,0,8.36-17.72,8.36-12.15,0-25.91-3.92-35.08-9.98-.29-.19-.65-.25-.98-.15-.33.1-.61.34-.75.66l-9.94,21.91c-.25.55-.07,1.2.42,1.54,10.23,6.9,28.38,11.54,45.17,11.54,30.21,0,49.72-13.61,49.72-34.67,0-26.04-23.99-29.87-41.5-32.66Z"/>
        <path class="cls-1" d="m288.36,13.81c-1.29,0-2.33,1.04-2.33,2.31v13.26c0,1.28,1.04,2.31,2.33,2.31s2.33-1.04,2.33-2.31v-13.26c0-1.28-1.04-2.31-2.33-2.31Z"/>
        <path class="cls-1" d="m267.22,17.15c-1.22.4-1.9,1.71-1.5,2.92l4.1,12.61c.39,1.22,1.71,1.88,2.93,1.48s1.9-1.71,1.5-2.92l-4.1-12.61c-.4-1.22-1.71-1.88-2.93-1.48Z"/>
        <path class="cls-1" d="m248.15,26.87c-1.04.76-1.28,2.21-.52,3.24l7.79,10.72c.75,1.03,2.2,1.26,3.25.5s1.28-2.21.53-3.24l-7.79-10.72c-.75-1.03-2.2-1.26-3.25-.5Z"/>
        <path class="cls-1" d="m318.07,41.34c1.04.76,2.49.53,3.25-.5l7.79-10.72c.75-1.03.52-2.49-.52-3.24-1.04-.76-2.49-.53-3.25.5l-7.79,10.72c-.75,1.03-.52,2.49.53,3.24Z"/>
        <path class="cls-1" d="m303.98,34.16c1.22.4,2.54-.27,2.93-1.48l4.1-12.61c.39-1.22-.28-2.52-1.5-2.92s-2.54.26-2.93,1.48l-4.1,12.61c-.4,1.22.28,2.52,1.5,2.92Z"/>
        <path class="cls-1" d="m312.94,137.64h-49.16c-1.64,0-2.97,1.32-2.97,2.95v6.94c0,1.63,1.33,2.95,2.97,2.95h49.17c1.64,0,2.97-1.32,2.97-2.95v-6.94c0-1.63-1.33-2.95-2.97-2.95Z"/>
      </g>
      <g>
        <path class="cls-2" d="m296.22,113.86c-.13,0-.25.01-.38.01-2.1,0-4.83-.49-7.47-2.3-2.64,1.82-5.37,2.3-7.47,2.3-.13,0-.25,0-.38-.01v16.74h15.71v-16.74Z"/>
        <path class="cls-2" d="m288.36,44.29c-20.95,0-37.93,16.98-37.93,37.94,0,8.62,2.88,16.56,7.72,22.93.02.03.04.07.07.1,6.62,9.08,8.42,14.07,8.42,25.35h8.82v-29.65c0-1.4,1.13-2.53,2.53-2.53s2.53,1.13,2.53,2.53v7.87c1.59.06,3.99-.26,6.1-2.3.05-.05.11-.09.17-.13.06-.05.13-.11.19-.15.07-.05.15-.08.22-.12.07-.04.14-.08.22-.11.08-.03.15-.05.23-.07.08-.02.16-.05.24-.06.08-.02.16-.02.24-.03.08,0,.16-.02.25-.02.08,0,.15.01.23.02.08,0,.17.01.25.03.08.01.15.04.22.06.08.02.16.04.24.08.07.03.14.07.21.11.08.04.15.08.22.12.07.04.13.1.19.15.06.05.12.08.17.13,2.13,2.05,4.52,2.37,6.1,2.31v-7.88c0-1.4,1.13-2.53,2.53-2.53s2.53,1.13,2.53,2.53v29.65h8.82c0-11.27,1.8-16.27,8.42-25.35.02-.03.04-.07.07-.1,4.84-6.37,7.72-14.31,7.72-22.93,0-20.95-16.98-37.94-37.94-37.94Z"/>
      </g>
    </g>
  </g>
</svg>